<mxfile host="app.diagrams.net" modified="2021-07-23T16:16:19.504Z" agent="5.0 (X11)" etag="sLRHInn77eNJE25ECHc1" version="14.9.2" type="github">
  <diagram id="qJuT_g8OBBTvtF5lffF5" name="Página-1">
    <mxGraphModel dx="1422" dy="724" grid="1" gridSize="10" guides="1" tooltips="1" connect="1" arrows="1" fold="1" page="1" pageScale="1" pageWidth="827" pageHeight="1169" math="0" shadow="0">
      <root>
        <mxCell id="0" />
        <mxCell id="1" parent="0" />
        <mxCell id="6JseRaGpWbJox8vpGDM1-3" value="" style="group" vertex="1" connectable="0" parent="1">
          <mxGeometry x="384" y="330" width="60" height="60" as="geometry" />
        </mxCell>
        <mxCell id="6JseRaGpWbJox8vpGDM1-1" value="" style="rounded=0;whiteSpace=wrap;html=1;movable=1;resizable=1;rotatable=1;deletable=1;editable=1;connectable=1;" vertex="1" parent="6JseRaGpWbJox8vpGDM1-3">
          <mxGeometry width="60" height="60" as="geometry" />
        </mxCell>
        <mxCell id="6JseRaGpWbJox8vpGDM1-2" value="&lt;div&gt;Gestão do Tempo&lt;/div&gt;" style="text;html=1;strokeColor=none;fillColor=none;align=center;verticalAlign=middle;whiteSpace=wrap;rounded=0;movable=1;resizable=1;rotatable=1;deletable=1;editable=1;connectable=1;" vertex="1" parent="6JseRaGpWbJox8vpGDM1-3">
          <mxGeometry x="10" y="20" width="40" height="20" as="geometry" />
        </mxCell>
      </root>
    </mxGraphModel>
  </diagram>
</mxfile>
